<?xml version="1.0" standalone="no"?>
<svg viewBox="0 0 200 200" xmlns="http://www.w3.org/2000/svg">
  <path fill="#08BDBA" d="M31.6,-53.9C45.6,-46.7,64.6,-47.5,75.4,-39.9C86.3,-32.2,88.9,-16.1,88.5,-0.2C88.2,15.7,84.9,31.4,74.4,39.5C63.8,47.6,45.9,48.1,32.3,54.5C18.7,60.9,9.3,73.3,-3.5,79.3C-16.4,85.4,-32.7,85.2,-43.8,77.3C-54.9,69.5,-60.7,53.9,-63.5,39.8C-66.3,25.6,-66.1,12.8,-68.6,-1.5C-71.1,-15.7,-76.4,-31.4,-73.1,-44.7C-69.8,-58,-57.9,-68.9,-44.3,-76.3C-30.7,-83.7,-15.4,-87.5,-3.3,-81.9C8.8,-76.2,17.7,-61.1,31.6,-53.9Z" transform="translate(100 100)" />
</svg>
