<?xml version="1.0" standalone="no"?>
<svg viewBox="0 0 200 200" xmlns="http://www.w3.org/2000/svg">
  <path fill="#F1C21B" d="M37,-61.2C48.4,-57.4,58.6,-48.6,60.1,-37.5C61.5,-26.5,54.1,-13.3,52.9,-0.7C51.6,11.8,56.5,23.6,56,36.2C55.5,48.9,49.6,62.3,39.4,68.4C29.1,74.4,14.6,73.1,0.7,71.9C-13.2,70.7,-26.3,69.6,-38.1,64.4C-49.9,59.2,-60.2,50,-66.4,38.6C-72.6,27.1,-74.7,13.6,-67.1,4.4C-59.6,-4.9,-42.4,-9.7,-34.1,-17.5C-25.8,-25.3,-26.5,-36.1,-22.3,-44.2C-18.1,-52.2,-9,-57.5,1.9,-60.7C12.7,-63.9,25.5,-65,37,-61.2Z" transform="translate(100 100)" />
</svg>
