<?xml version="1.0" standalone="no"?>
<svg viewBox="0 0 200 200" xmlns="http://www.w3.org/2000/svg">
  <path fill="#D0E2FF" d="M36.3,-69.5C40.3,-60.6,32.1,-37.2,40.5,-23.2C48.9,-9.2,73.9,-4.6,82.7,5.1C91.5,14.8,84.1,29.5,69.6,32.9C55.1,36.3,33.4,28.4,20.6,31C7.9,33.7,3.9,47,-4.2,54.2C-12.3,61.5,-24.6,62.7,-28.6,54.9C-32.6,47.2,-28.3,30.5,-35.6,19.9C-43,9.2,-62.1,4.6,-69.2,-4.1C-76.4,-12.9,-71.6,-25.7,-60.9,-30.6C-50.1,-35.4,-33.4,-32.2,-22.3,-36.9C-11.1,-41.7,-5.6,-54.5,5.3,-63.6C16.2,-72.8,32.3,-78.3,36.3,-69.5Z" transform="translate(100 100)" />
</svg>
